Coordinates
version=1
nRows=14
nColumns=40
inDegrees=yes

Units are S.I. units (second, meters, Newtons, ...)
Angles are in degrees.

endheader
time	pelvis_tilt	pelvis_list	pelvis_rotation	pelvis_tx	pelvis_ty	pelvis_tz	hip_flexion_r	hip_adduction_r	hip_rotation_r	knee_angle_r	knee_angle_r_beta	ankle_angle_r	subtalar_angle_r	mtp_angle_r	hip_flexion_l	hip_adduction_l	hip_rotation_l	knee_angle_l	knee_angle_l_beta	ankle_angle_l	subtalar_angle_l	mtp_angle_l	lumbar_extension	lumbar_bending	lumbar_rotation	arm_flex_r	arm_add_r	arm_rot_r	elbow_flex_r	pro_sup_r	wrist_flex_r	wrist_dev_r	arm_flex_l	arm_add_l	arm_rot_l	elbow_flex_l	pro_sup_l	wrist_flex_l	wrist_dev_l
     51.79500000	     -5.20944709	     -4.54077765	      7.66853130	      1.06279800	      0.92700832	      0.47508075	      3.97517793	      3.49990228	    -19.27124401	     11.53480216	     11.53480216	     13.93994880	      1.00174361	     -4.79544133	     30.08385644	     -6.47794793	     -2.42785497	     20.96182955	     20.96182955	      5.31185455	     -7.04854188	      5.89559396	     -9.47736520	      5.36900274	      3.57907103	     34.77733315	    -16.70826887	     -0.88822216	     63.16355446	     44.71988972	      0.00000000	      0.00000000	     -3.76672760	     -6.77401539	     -6.79470157	     26.30672530	     45.64697892	      0.00000000	      0.00000000
     51.80835714	     -5.15749698	     -4.80956813	      7.51602841	      1.06348982	      0.92581764	      0.47362734	      3.52171026	      3.76279631	    -19.04727330	     11.55894178	     11.55894178	     14.42138185	      1.01184129	     -4.55891233	     29.78256478	     -6.55656840	     -1.79310541	     22.19653327	     22.19653327	      5.23812253	     -8.30540350	      5.80284464	     -9.31576814	      5.53936100	      3.73874045	     34.41808565	    -16.45365547	     -0.79639530	     63.14259466	     44.72485556	      0.00000000	      0.00000000	     -4.03680501	     -6.83827017	     -6.78776567	     26.44765775	     45.64692329	      0.00000000	      0.00000000
     51.82171429	     -5.04380318	     -4.90047714	      7.27776180	      1.06442673	      0.92491460	      0.47210571	      3.02019501	      3.80417052	    -18.74015882	     11.69470175	     11.69470175	     14.86685599	      1.03365972	     -4.43648729	     29.19366203	     -6.54741903	     -1.48928423	     23.03889109	     23.03889109	      5.36719020	     -9.06317421	      5.74925468	     -9.20378588	      5.48344573	      3.91101735	     33.84926726	    -16.17476767	     -0.62086438	     62.98687158	     44.72755047	      0.00000000	      0.00000000	     -4.24577719	     -6.95692116	     -6.80994744	     26.54064279	     45.65139111	      0.00000000	      0.00000000
     51.83507143	     -4.96015985	     -4.99141499	      7.03586544	      1.06542198	      0.92413182	      0.47050950	      2.56346810	      3.82406996	    -18.45713560	     11.85709904	     11.85709904	     15.25867852	      1.04788037	     -4.36775288	     28.62157042	     -6.54795504	     -1.22561025	     23.68528404	     23.68528404	      5.59809856	     -9.63370011	      5.67513901	     -9.06605398	      5.39649696	      4.04202923	     33.12616086	    -15.87376527	     -0.40758098	     62.74778380	     44.72891685	      0.00000000	      0.00000000	     -4.40247944	     -7.07317707	     -6.84294958	     26.60063424	     45.65735612	      0.00000000	      0.00000000
     51.84842857	     -4.91709427	     -5.09206722	      6.82606160	      1.06631342	      0.92353027	      0.46870866	      2.22791790	      3.81221097	    -18.14017770	     12.16086871	     12.16086871	     15.70045160	      0.97207857	     -3.87336554	     28.12978653	     -6.48869739	     -0.76230172	     24.17976903	     24.17976903	      5.82950054	    -10.44948968	      5.72042605	     -8.88871566	      5.35072939	      4.15622988	     32.34319265	    -15.70909389	      0.00922682	     62.29064282	     44.73946012	      0.00000000	      0.00000000	     -4.50367509	     -7.17585112	     -6.91658731	     26.84871970	     45.67749374	      0.00000000	      0.00000000
     51.86178571	     -4.83665143	     -5.15908746	      6.64490068	      1.06726424	      0.92328885	      0.46678654	      1.82005083	      3.75457713	    -17.95368064	     12.38916099	     12.38916099	     15.90168835	      0.98951230	     -3.88906128	     27.59041856	     -6.47880457	     -0.60930220	     24.50560467	     24.50560467	      6.24942533	    -10.70077356	      5.54068407	     -8.75053100	      5.26393399	      4.12453982	     31.43982107	    -15.34174665	      0.22293558	     61.99733658	     44.73885766	      0.00000000	      0.00000000	     -4.51347175	     -7.30474340	     -6.94337647	     26.86026376	     45.68330321	      0.00000000	      0.00000000
     51.87514286	     -4.79259732	     -5.15116221	      6.49156187	      1.06799588	      0.92327337	      0.46458907	      1.67500969	      3.51447089	    -17.78516347	     13.06999977	     13.06999977	     16.26737267	      0.87101328	     -3.47994990	     27.15079237	     -6.33592501	     -0.36828777	     24.78436477	     24.78436477	      6.55303364	    -11.25065198	      5.37008400	     -8.61148283	      5.09652304	      4.22235981	     30.48232611	    -15.29379585	      0.75507165	     61.13470459	     44.75727588	      0.00000000	      0.00000000	     -4.30386904	     -7.43426475	     -7.03002713	     26.99277945	     45.71138875	      0.00000000	      0.00000000
     51.88850000	     -4.70764235	     -5.23532730	      6.40048608	      1.06874215	      0.92368223	      0.46223516	      1.35334523	      3.41314627	    -17.69302827	     13.42024615	     13.42024615	     16.25022903	      0.85519520	     -3.45714958	     26.67480120	     -6.32006982	     -0.22218799	     24.93745746	     24.93745746	      7.01384958	    -11.40793931	      5.17332059	     -8.55158631	      5.07513236	      4.00586386	     29.40040639	    -14.93346023	      0.98962877	     60.74474997	     44.75816116	      0.00000000	      0.00000000	     -4.12361748	     -7.54103659	     -7.04645445	     27.04892264	     45.71866352	      0.00000000	      0.00000000
     51.90185714	     -4.70557774	     -5.13554972	      6.27021669	      1.06922847	      0.92425332	      0.45963277	      1.52959658	      2.92700413	    -17.64061882	     14.60673515	     14.60673515	     16.43313330	      0.66923838	     -3.34876093	     26.21070421	     -6.11221601	     -0.26765494	     24.91751377	     24.91751377	      7.32924672	    -11.58725101	      4.92759566	     -8.40113097	      4.83288196	      4.09569544	     28.28338748	    -14.96045003	      1.52012122	     59.63406376	     44.78110067	      0.00000000	      0.00000000	     -3.65663289	     -7.66591589	     -7.09519698	     27.12644665	     45.74277297	      0.00000000	      0.00000000
     51.91521429	     -4.57220366	     -5.27034802	      6.25848677	      1.06976395	      0.92528894	      0.45694048	      1.34835008	      2.79777770	    -17.62961584	     15.26048881	     15.26048881	     16.23075907	      0.58815208	     -3.35110304	     25.68361061	     -6.14319780	     -0.17181484	     24.91084849	     24.91084849	      7.73382833	    -11.61951151	      4.75889409	     -8.39986199	      4.92337171	      3.78179641	     27.01146049	    -14.61424093	      1.79525892	     59.09441000	     44.78479221	      0.00000000	      0.00000000	     -3.31391972	     -7.75990856	     -7.10187792	     27.22858778	     45.75132912	      0.00000000	      0.00000000
     51.92857143	     -4.62377291	     -5.07915073	      6.07944939	      1.06989400	      0.92621276	      0.45411008	      1.97795147	      2.04145509	    -17.51775182	     17.15960048	     17.15960048	     16.25259537	      0.20345666	     -3.67245383	     25.15679241	     -5.90464072	     -0.58749864	     24.64447956	     24.64447956	      8.04654991	    -11.36691410	      4.50576892	     -8.30874134	      4.62707309	      3.89704871	     25.78154554	    -14.76360354	      2.26245261	     57.84003537	     44.81122445	      0.00000000	      0.00000000	     -2.63417674	     -7.88006010	     -7.11040250	     27.40807564	     45.76934173	      0.00000000	      0.00000000
     51.94192857	     -4.61820931	     -5.04921065	      5.94083694	      1.07000014	      0.92724959	      0.45132022	      2.60419594	      1.46789589	    -17.42790675	     19.09499182	     19.09499182	     16.04530240	     -0.22629148	     -4.07577009	     24.61319936	     -5.82968364	     -0.92685345	     24.40361458	     24.40361458	      8.42446635	    -11.03774924	      4.20605672	     -8.20849260	      4.50294384	      3.86953540	     24.51043105	    -14.72081011	      2.75295723	     56.62395463	     44.83465214	      0.00000000	      0.00000000	     -1.99678764	     -7.96824621	     -7.09054106	     27.57181640	     45.78149540	      0.00000000	      0.00000000
     51.95528571	     -4.61687301	     -5.02945498	      5.76746040	      1.06996235	      0.92827494	      0.44854438	      3.43668169	      0.84872684	    -17.23999830	     21.36873508	     21.36873508	     15.70344129	     -0.81866602	     -4.67831626	     24.04310811	     -5.79793057	     -1.41117242	     24.12381472	     24.12381472	      8.77917726	    -10.55495214	      3.88466450	     -8.14427728	      4.42827519	      3.82313217	     23.22450229	    -14.66666294	      3.24684999	     55.34615971	     44.85975997	      0.00000000	      0.00000000	     -1.32837426	     -8.05934473	     -7.05468709	     27.80324472	     45.79096292	      0.00000000	      0.00000000
     51.96864286	     -4.62244443	     -4.98673253	      5.54409966	      1.06975199	      0.92917895	      0.44588617	      4.52191308	      0.15303776	    -16.90353975	     24.05322752	     24.05322752	     15.20504175	     -1.63270768	     -5.47263722	     23.47275482	     -5.78039909	     -2.03065649	     23.84873870	     23.84873870	      9.13811465	     -9.93409625	      3.51765315	     -8.11064246	      4.31482845	      3.77720039	     21.95201017	    -14.63997725	      3.72521027	     54.01549984	     44.88700404	      0.00000000	      0.00000000	     -0.62037222	     -8.17109173	     -7.00803091	     28.13099570	     45.79860197	      0.00000000	      0.00000000
